<svg width="222" height="33" viewBox="0 0 222 33" fill="none" xmlns="http://www.w3.org/2000/svg">
<path d="M3.48 24C2.952 24 2.544 23.864 2.256 23.592C1.984 23.304 1.848 22.896 1.848 22.368V8.712C1.848 8.184 1.984 7.784 2.256 7.512C2.544 7.224 2.952 7.08 3.48 7.08H9.24C10.424 7.08 11.432 7.256 12.264 7.608C13.096 7.96 13.728 8.464 14.16 9.12C14.608 9.776 14.832 10.56 14.832 11.472C14.832 12.496 14.536 13.36 13.944 14.064C13.352 14.768 12.544 15.24 11.52 15.48V15.12C12.704 15.296 13.624 15.744 14.28 16.464C14.936 17.184 15.264 18.12 15.264 19.272C15.264 20.776 14.752 21.944 13.728 22.776C12.72 23.592 11.312 24 9.504 24H3.48ZM4.8 21.672H9.12C10.208 21.672 11.008 21.464 11.52 21.048C12.032 20.616 12.288 19.976 12.288 19.128C12.288 18.264 12.032 17.624 11.52 17.208C11.008 16.792 10.208 16.584 9.12 16.584H4.8V21.672ZM4.8 14.256H8.712C9.768 14.256 10.552 14.056 11.064 13.656C11.592 13.24 11.856 12.632 11.856 11.832C11.856 11.032 11.592 10.432 11.064 10.032C10.552 9.616 9.768 9.408 8.712 9.408H4.8V14.256ZM21.0594 28.512C20.7074 28.512 20.4194 28.416 20.1954 28.224C19.9714 28.048 19.8354 27.808 19.7874 27.504C19.7554 27.2 19.8114 26.88 19.9554 26.544L21.5874 22.92V24.168L17.2194 14.064C17.0754 13.712 17.0274 13.384 17.0754 13.08C17.1234 12.776 17.2674 12.536 17.5074 12.36C17.7634 12.168 18.1074 12.072 18.5394 12.072C18.9074 12.072 19.2034 12.16 19.4274 12.336C19.6514 12.496 19.8514 12.808 20.0274 13.272L23.2674 21.36H22.5474L25.8594 13.248C26.0354 12.8 26.2434 12.496 26.4834 12.336C26.7234 12.16 27.0434 12.072 27.4434 12.072C27.7954 12.072 28.0754 12.168 28.2834 12.36C28.4914 12.536 28.6194 12.776 28.6674 13.08C28.7154 13.368 28.6594 13.688 28.4994 14.04L22.6674 27.36C22.4594 27.808 22.2354 28.112 21.9954 28.272C21.7554 28.432 21.4434 28.512 21.0594 28.512ZM34.3459 24.24C33.4979 24.24 32.7379 24.08 32.0659 23.76C31.4099 23.424 30.8899 22.976 30.5059 22.416C30.1379 21.856 29.9539 21.224 29.9539 20.52C29.9539 19.656 30.1779 18.976 30.6259 18.48C31.0739 17.968 31.8019 17.6 32.8099 17.376C33.8179 17.152 35.1699 17.04 36.8659 17.04H38.0659V18.768H36.8899C35.8979 18.768 35.1059 18.816 34.5139 18.912C33.9219 19.008 33.4979 19.176 33.2419 19.416C33.0019 19.64 32.8819 19.96 32.8819 20.376C32.8819 20.904 33.0659 21.336 33.4339 21.672C33.8019 22.008 34.3139 22.176 34.9699 22.176C35.4979 22.176 35.9619 22.056 36.3619 21.816C36.7779 21.56 37.1059 21.216 37.3459 20.784C37.5859 20.352 37.7059 19.856 37.7059 19.296V16.536C37.7059 15.736 37.5299 15.16 37.1779 14.808C36.8259 14.456 36.2339 14.28 35.4019 14.28C34.9379 14.28 34.4339 14.336 33.8899 14.448C33.3619 14.56 32.8019 14.752 32.2099 15.024C31.9059 15.168 31.6339 15.208 31.3939 15.144C31.1699 15.08 30.9939 14.952 30.8659 14.76C30.7379 14.552 30.6739 14.328 30.6739 14.088C30.6739 13.848 30.7379 13.616 30.8659 13.392C30.9939 13.152 31.2099 12.976 31.5139 12.864C32.2499 12.56 32.9539 12.344 33.6259 12.216C34.3139 12.088 34.9379 12.024 35.4979 12.024C36.6499 12.024 37.5939 12.2 38.3299 12.552C39.0819 12.904 39.6419 13.44 40.0099 14.16C40.3779 14.864 40.5619 15.776 40.5619 16.896V22.656C40.5619 23.152 40.4419 23.536 40.2019 23.808C39.9619 24.064 39.6179 24.192 39.1699 24.192C38.7219 24.192 38.3699 24.064 38.1139 23.808C37.8739 23.536 37.7539 23.152 37.7539 22.656V21.504H37.9459C37.8339 22.064 37.6099 22.552 37.2739 22.968C36.9539 23.368 36.5459 23.68 36.0499 23.904C35.5539 24.128 34.9859 24.24 34.3459 24.24ZM45.0949 24.192C44.6149 24.192 44.2469 24.064 43.9909 23.808C43.7349 23.536 43.6069 23.152 43.6069 22.656V8.4C43.6069 7.904 43.7349 7.528 43.9909 7.272C44.2469 7.016 44.6149 6.888 45.0949 6.888C45.5749 6.888 45.9429 7.016 46.1989 7.272C46.4709 7.528 46.6069 7.904 46.6069 8.4V14.616H46.2709C46.6229 13.768 47.1669 13.128 47.9029 12.696C48.6549 12.248 49.5029 12.024 50.4469 12.024C51.3909 12.024 52.1669 12.2 52.7749 12.552C53.3829 12.904 53.8389 13.44 54.1429 14.16C54.4469 14.864 54.5989 15.76 54.5989 16.848V22.656C54.5989 23.152 54.4709 23.536 54.2149 23.808C53.9589 24.064 53.5909 24.192 53.1109 24.192C52.6309 24.192 52.2549 24.064 51.9829 23.808C51.7269 23.536 51.5989 23.152 51.5989 22.656V16.992C51.5989 16.08 51.4229 15.416 51.0709 15C50.7349 14.584 50.2069 14.376 49.4869 14.376C48.6069 14.376 47.9029 14.656 47.3749 15.216C46.8629 15.76 46.6069 16.488 46.6069 17.4V22.656C46.6069 23.68 46.1029 24.192 45.0949 24.192ZM63.4299 24.24C62.1019 24.24 60.9579 23.992 59.9979 23.496C59.0379 23 58.2939 22.296 57.7659 21.384C57.2539 20.472 56.9979 19.392 56.9979 18.144C56.9979 16.928 57.2459 15.864 57.7419 14.952C58.2539 14.04 58.9499 13.328 59.8299 12.816C60.7259 12.288 61.7419 12.024 62.8779 12.024C63.7099 12.024 64.4539 12.16 65.1099 12.432C65.7819 12.704 66.3499 13.096 66.8139 13.608C67.2939 14.12 67.6539 14.744 67.8939 15.48C68.1499 16.2 68.2779 17.016 68.2779 17.928C68.2779 18.216 68.1739 18.44 67.9659 18.6C67.7739 18.744 67.4939 18.816 67.1259 18.816H59.4219V17.088H66.1659L65.7819 17.448C65.7819 16.712 65.6699 16.096 65.4459 15.6C65.2379 15.104 64.9259 14.728 64.5099 14.472C64.1099 14.2 63.6059 14.064 62.9979 14.064C62.3259 14.064 61.7499 14.224 61.2699 14.544C60.8059 14.848 60.4459 15.288 60.1899 15.864C59.9499 16.424 59.8299 17.096 59.8299 17.88V18.048C59.8299 19.36 60.1339 20.344 60.7419 21C61.3659 21.64 62.2779 21.96 63.4779 21.96C63.8939 21.96 64.3579 21.912 64.8699 21.816C65.3979 21.704 65.8939 21.52 66.3579 21.264C66.6939 21.072 66.9899 20.992 67.2459 21.024C67.5019 21.04 67.7019 21.128 67.8459 21.288C68.0059 21.448 68.1019 21.648 68.1339 21.888C68.1659 22.112 68.1179 22.344 67.9899 22.584C67.8779 22.824 67.6779 23.032 67.3899 23.208C66.8299 23.56 66.1819 23.824 65.4459 24C64.7259 24.16 64.0539 24.24 63.4299 24.24Z" fill="#2563EB"/>
<path d="M72.0938 24.12C71.5498 24.12 71.1098 23.952 70.7738 23.616C70.4538 23.28 70.2938 22.848 70.2938 22.32C70.2938 21.808 70.4538 21.392 70.7738 21.072C71.1098 20.736 71.5498 20.568 72.0938 20.568C72.6538 20.568 73.0858 20.736 73.3898 21.072C73.7098 21.392 73.8698 21.808 73.8698 22.32C73.8698 22.848 73.7098 23.28 73.3898 23.616C73.0858 23.952 72.6538 24.12 72.0938 24.12Z" fill="#FDE047"/>
<path d="M78.0949 24.192C77.6149 24.192 77.2469 24.064 76.9909 23.808C76.7349 23.536 76.6069 23.152 76.6069 22.656V13.584C76.6069 13.088 76.7349 12.712 76.9909 12.456C77.2469 12.2 77.6069 12.072 78.0709 12.072C78.5349 12.072 78.8949 12.2 79.1509 12.456C79.4069 12.712 79.5349 13.088 79.5349 13.584V15.216L79.2709 14.616C79.6229 13.768 80.1669 13.128 80.9029 12.696C81.6549 12.248 82.5029 12.024 83.4469 12.024C84.3909 12.024 85.1669 12.2 85.7749 12.552C86.3829 12.904 86.8389 13.44 87.1429 14.16C87.4469 14.864 87.5989 15.76 87.5989 16.848V22.656C87.5989 23.152 87.4709 23.536 87.2149 23.808C86.9589 24.064 86.5909 24.192 86.1109 24.192C85.6309 24.192 85.2549 24.064 84.9829 23.808C84.7269 23.536 84.5989 23.152 84.5989 22.656V16.992C84.5989 16.08 84.4229 15.416 84.0709 15C83.7349 14.584 83.2069 14.376 82.4869 14.376C81.6069 14.376 80.9029 14.656 80.3749 15.216C79.8629 15.76 79.6069 16.488 79.6069 17.4V22.656C79.6069 23.68 79.1029 24.192 78.0949 24.192ZM96.4299 24.24C95.1019 24.24 93.9579 23.992 92.9979 23.496C92.0379 23 91.2939 22.296 90.7659 21.384C90.2539 20.472 89.9979 19.392 89.9979 18.144C89.9979 16.928 90.2459 15.864 90.7419 14.952C91.2539 14.04 91.9499 13.328 92.8299 12.816C93.7259 12.288 94.7419 12.024 95.8779 12.024C96.7099 12.024 97.4539 12.16 98.1099 12.432C98.7819 12.704 99.3499 13.096 99.8139 13.608C100.294 14.12 100.654 14.744 100.894 15.48C101.15 16.2 101.278 17.016 101.278 17.928C101.278 18.216 101.174 18.44 100.966 18.6C100.774 18.744 100.494 18.816 100.126 18.816H92.4219V17.088H99.1659L98.7819 17.448C98.7819 16.712 98.6699 16.096 98.4459 15.6C98.2379 15.104 97.9259 14.728 97.5099 14.472C97.1099 14.2 96.6059 14.064 95.9979 14.064C95.3259 14.064 94.7499 14.224 94.2699 14.544C93.8059 14.848 93.4459 15.288 93.1899 15.864C92.9499 16.424 92.8299 17.096 92.8299 17.88V18.048C92.8299 19.36 93.1339 20.344 93.7419 21C94.3659 21.64 95.2779 21.96 96.4779 21.96C96.8939 21.96 97.3579 21.912 97.8699 21.816C98.3979 21.704 98.8939 21.52 99.3579 21.264C99.6939 21.072 99.9899 20.992 100.246 21.024C100.502 21.04 100.702 21.128 100.846 21.288C101.006 21.448 101.102 21.648 101.134 21.888C101.166 22.112 101.118 22.344 100.99 22.584C100.878 22.824 100.678 23.032 100.39 23.208C99.8299 23.56 99.1819 23.824 98.4459 24C97.7259 24.16 97.0539 24.24 96.4299 24.24ZM108.983 24.24C107.943 24.24 107.071 24.064 106.367 23.712C105.679 23.36 105.167 22.848 104.831 22.176C104.495 21.488 104.327 20.64 104.327 19.632V14.52H103.079C102.695 14.52 102.399 14.424 102.191 14.232C101.983 14.024 101.879 13.744 101.879 13.392C101.879 13.024 101.983 12.744 102.191 12.552C102.399 12.36 102.695 12.264 103.079 12.264H104.327V10.08C104.327 9.584 104.455 9.208 104.711 8.952C104.983 8.696 105.359 8.568 105.839 8.568C106.319 8.568 106.687 8.696 106.943 8.952C107.199 9.208 107.327 9.584 107.327 10.08V12.264H109.871C110.255 12.264 110.551 12.36 110.759 12.552C110.967 12.744 111.071 13.024 111.071 13.392C111.071 13.744 110.967 14.024 110.759 14.232C110.551 14.424 110.255 14.52 109.871 14.52H107.327V19.464C107.327 20.232 107.495 20.808 107.831 21.192C108.167 21.576 108.711 21.768 109.463 21.768C109.735 21.768 109.975 21.744 110.183 21.696C110.391 21.648 110.575 21.616 110.735 21.6C110.927 21.584 111.087 21.648 111.215 21.792C111.343 21.92 111.407 22.192 111.407 22.608C111.407 22.928 111.351 23.216 111.239 23.472C111.143 23.712 110.959 23.88 110.687 23.976C110.479 24.04 110.207 24.096 109.871 24.144C109.535 24.208 109.239 24.24 108.983 24.24Z" fill="#DC2626"/>
<path d="M119.789 24.192C119.405 24.192 119.093 24.104 118.853 23.928C118.629 23.752 118.493 23.52 118.445 23.232C118.397 22.928 118.453 22.592 118.613 22.224L124.949 8.184C125.157 7.72 125.405 7.392 125.693 7.2C125.997 6.992 126.341 6.888 126.725 6.888C127.093 6.888 127.421 6.992 127.709 7.2C128.013 7.392 128.269 7.72 128.477 8.184L134.837 22.224C135.013 22.592 135.077 22.928 135.029 23.232C134.981 23.536 134.845 23.776 134.621 23.952C134.397 24.112 134.101 24.192 133.733 24.192C133.285 24.192 132.933 24.088 132.677 23.88C132.437 23.656 132.221 23.32 132.029 22.872L130.469 19.248L131.765 20.088H121.637L122.933 19.248L121.397 22.872C121.189 23.336 120.973 23.672 120.749 23.88C120.525 24.088 120.205 24.192 119.789 24.192ZM126.677 10.416L123.317 18.408L122.693 17.64H130.709L130.109 18.408L126.725 10.416H126.677ZM142.5 24.24C141.268 24.24 140.196 23.992 139.284 23.496C138.372 22.984 137.668 22.264 137.172 21.336C136.676 20.408 136.428 19.32 136.428 18.072C136.428 17.128 136.564 16.288 136.836 15.552C137.124 14.8 137.532 14.168 138.06 13.656C138.588 13.128 139.228 12.728 139.98 12.456C140.732 12.168 141.572 12.024 142.5 12.024C143.028 12.024 143.596 12.096 144.204 12.24C144.828 12.384 145.412 12.624 145.956 12.96C146.212 13.12 146.38 13.312 146.46 13.536C146.54 13.76 146.556 13.992 146.508 14.232C146.46 14.456 146.356 14.656 146.196 14.832C146.052 14.992 145.868 15.096 145.644 15.144C145.42 15.176 145.172 15.12 144.9 14.976C144.548 14.768 144.188 14.616 143.82 14.52C143.452 14.408 143.1 14.352 142.764 14.352C142.236 14.352 141.772 14.44 141.372 14.616C140.972 14.776 140.628 15.016 140.34 15.336C140.068 15.64 139.86 16.024 139.716 16.488C139.572 16.952 139.5 17.488 139.5 18.096C139.5 19.28 139.78 20.216 140.34 20.904C140.916 21.576 141.724 21.912 142.764 21.912C143.1 21.912 143.444 21.864 143.796 21.768C144.164 21.672 144.532 21.52 144.9 21.312C145.172 21.168 145.412 21.12 145.62 21.168C145.844 21.216 146.028 21.328 146.172 21.504C146.316 21.664 146.404 21.864 146.436 22.104C146.468 22.328 146.436 22.552 146.34 22.776C146.26 23 146.1 23.184 145.86 23.328C145.332 23.648 144.772 23.88 144.18 24.024C143.588 24.168 143.028 24.24 142.5 24.24ZM153.819 24.24C152.779 24.24 151.907 24.064 151.203 23.712C150.515 23.36 150.003 22.848 149.667 22.176C149.331 21.488 149.163 20.64 149.163 19.632V14.52H147.915C147.531 14.52 147.235 14.424 147.027 14.232C146.819 14.024 146.715 13.744 146.715 13.392C146.715 13.024 146.819 12.744 147.027 12.552C147.235 12.36 147.531 12.264 147.915 12.264H149.163V10.08C149.163 9.584 149.291 9.208 149.547 8.952C149.819 8.696 150.195 8.568 150.675 8.568C151.155 8.568 151.523 8.696 151.779 8.952C152.035 9.208 152.163 9.584 152.163 10.08V12.264H154.707C155.091 12.264 155.387 12.36 155.595 12.552C155.803 12.744 155.907 13.024 155.907 13.392C155.907 13.744 155.803 14.024 155.595 14.232C155.387 14.424 155.091 14.52 154.707 14.52H152.163V19.464C152.163 20.232 152.331 20.808 152.667 21.192C153.003 21.576 153.547 21.768 154.299 21.768C154.571 21.768 154.811 21.744 155.019 21.696C155.227 21.648 155.411 21.616 155.571 21.6C155.763 21.584 155.923 21.648 156.051 21.792C156.179 21.92 156.243 22.192 156.243 22.608C156.243 22.928 156.187 23.216 156.075 23.472C155.979 23.712 155.795 23.88 155.523 23.976C155.315 24.04 155.043 24.096 154.707 24.144C154.371 24.208 154.075 24.24 153.819 24.24ZM159.446 24.168C158.966 24.168 158.598 24.024 158.342 23.736C158.086 23.448 157.958 23.048 157.958 22.536V13.728C157.958 13.2 158.086 12.8 158.342 12.528C158.598 12.24 158.966 12.096 159.446 12.096C159.926 12.096 160.294 12.24 160.55 12.528C160.822 12.8 160.958 13.2 160.958 13.728V22.536C160.958 23.048 160.83 23.448 160.574 23.736C160.318 24.024 159.942 24.168 159.446 24.168ZM159.446 9.864C158.886 9.864 158.446 9.728 158.126 9.456C157.822 9.168 157.67 8.776 157.67 8.28C157.67 7.768 157.822 7.376 158.126 7.104C158.446 6.832 158.886 6.696 159.446 6.696C160.022 6.696 160.462 6.832 160.766 7.104C161.07 7.376 161.222 7.768 161.222 8.28C161.222 8.776 161.07 9.168 160.766 9.456C160.462 9.728 160.022 9.864 159.446 9.864ZM168.828 24.192C168.428 24.192 168.076 24.088 167.772 23.88C167.484 23.672 167.244 23.352 167.052 22.92L163.236 14.064C163.092 13.712 163.036 13.384 163.068 13.08C163.116 12.776 163.26 12.536 163.5 12.36C163.756 12.168 164.1 12.072 164.532 12.072C164.9 12.072 165.196 12.16 165.42 12.336C165.644 12.496 165.844 12.808 166.02 13.272L169.26 21.36H168.54L171.876 13.248C172.052 12.8 172.252 12.496 172.476 12.336C172.716 12.16 173.036 12.072 173.436 12.072C173.788 12.072 174.068 12.168 174.276 12.36C174.484 12.536 174.612 12.776 174.66 13.08C174.708 13.368 174.652 13.688 174.492 14.04L170.604 22.92C170.428 23.352 170.188 23.672 169.884 23.88C169.596 24.088 169.244 24.192 168.828 24.192ZM178.22 24.168C177.74 24.168 177.372 24.024 177.116 23.736C176.86 23.448 176.732 23.048 176.732 22.536V13.728C176.732 13.2 176.86 12.8 177.116 12.528C177.372 12.24 177.74 12.096 178.22 12.096C178.7 12.096 179.068 12.24 179.324 12.528C179.596 12.8 179.732 13.2 179.732 13.728V22.536C179.732 23.048 179.604 23.448 179.348 23.736C179.092 24.024 178.716 24.168 178.22 24.168ZM178.22 9.864C177.66 9.864 177.22 9.728 176.9 9.456C176.596 9.168 176.444 8.776 176.444 8.28C176.444 7.768 176.596 7.376 176.9 7.104C177.22 6.832 177.66 6.696 178.22 6.696C178.796 6.696 179.236 6.832 179.54 7.104C179.844 7.376 179.996 7.768 179.996 8.28C179.996 8.776 179.844 9.168 179.54 9.456C179.236 9.728 178.796 9.864 178.22 9.864ZM188.225 24.24C187.185 24.24 186.313 24.064 185.609 23.712C184.921 23.36 184.409 22.848 184.073 22.176C183.737 21.488 183.569 20.64 183.569 19.632V14.52H182.321C181.937 14.52 181.641 14.424 181.433 14.232C181.225 14.024 181.121 13.744 181.121 13.392C181.121 13.024 181.225 12.744 181.433 12.552C181.641 12.36 181.937 12.264 182.321 12.264H183.569V10.08C183.569 9.584 183.697 9.208 183.953 8.952C184.225 8.696 184.601 8.568 185.081 8.568C185.561 8.568 185.929 8.696 186.185 8.952C186.441 9.208 186.569 9.584 186.569 10.08V12.264H189.113C189.497 12.264 189.793 12.36 190.001 12.552C190.209 12.744 190.313 13.024 190.313 13.392C190.313 13.744 190.209 14.024 190.001 14.232C189.793 14.424 189.497 14.52 189.113 14.52H186.569V19.464C186.569 20.232 186.737 20.808 187.073 21.192C187.409 21.576 187.953 21.768 188.705 21.768C188.977 21.768 189.217 21.744 189.425 21.696C189.633 21.648 189.817 21.616 189.977 21.6C190.169 21.584 190.329 21.648 190.457 21.792C190.585 21.92 190.649 22.192 190.649 22.608C190.649 22.928 190.593 23.216 190.481 23.472C190.385 23.712 190.201 23.88 189.929 23.976C189.721 24.04 189.449 24.096 189.113 24.144C188.777 24.208 188.481 24.24 188.225 24.24ZM193.853 24.168C193.373 24.168 193.005 24.024 192.749 23.736C192.493 23.448 192.365 23.048 192.365 22.536V13.728C192.365 13.2 192.493 12.8 192.749 12.528C193.005 12.24 193.373 12.096 193.853 12.096C194.333 12.096 194.701 12.24 194.957 12.528C195.229 12.8 195.365 13.2 195.365 13.728V22.536C195.365 23.048 195.237 23.448 194.981 23.736C194.725 24.024 194.349 24.168 193.853 24.168ZM193.853 9.864C193.293 9.864 192.853 9.728 192.533 9.456C192.229 9.168 192.077 8.776 192.077 8.28C192.077 7.768 192.229 7.376 192.533 7.104C192.853 6.832 193.293 6.696 193.853 6.696C194.429 6.696 194.869 6.832 195.173 7.104C195.477 7.376 195.629 7.768 195.629 8.28C195.629 8.776 195.477 9.168 195.173 9.456C194.869 9.728 194.429 9.864 193.853 9.864ZM204.266 24.24C202.938 24.24 201.794 23.992 200.834 23.496C199.874 23 199.13 22.296 198.602 21.384C198.09 20.472 197.834 19.392 197.834 18.144C197.834 16.928 198.082 15.864 198.578 14.952C199.09 14.04 199.786 13.328 200.666 12.816C201.562 12.288 202.578 12.024 203.714 12.024C204.546 12.024 205.29 12.16 205.946 12.432C206.618 12.704 207.186 13.096 207.65 13.608C208.13 14.12 208.49 14.744 208.73 15.48C208.986 16.2 209.114 17.016 209.114 17.928C209.114 18.216 209.01 18.44 208.802 18.6C208.61 18.744 208.33 18.816 207.962 18.816H200.258V17.088H207.002L206.618 17.448C206.618 16.712 206.506 16.096 206.282 15.6C206.074 15.104 205.762 14.728 205.346 14.472C204.946 14.2 204.442 14.064 203.834 14.064C203.162 14.064 202.586 14.224 202.106 14.544C201.642 14.848 201.282 15.288 201.026 15.864C200.786 16.424 200.666 17.096 200.666 17.88V18.048C200.666 19.36 200.97 20.344 201.578 21C202.202 21.64 203.114 21.96 204.314 21.96C204.73 21.96 205.194 21.912 205.706 21.816C206.234 21.704 206.73 21.52 207.194 21.264C207.53 21.072 207.826 20.992 208.082 21.024C208.338 21.04 208.538 21.128 208.682 21.288C208.842 21.448 208.938 21.648 208.97 21.888C209.002 22.112 208.954 22.344 208.826 22.584C208.714 22.824 208.514 23.032 208.226 23.208C207.666 23.56 207.018 23.824 206.282 24C205.562 24.16 204.89 24.24 204.266 24.24ZM215.786 24.24C215.098 24.24 214.37 24.168 213.602 24.024C212.834 23.88 212.146 23.632 211.538 23.28C211.282 23.12 211.098 22.936 210.986 22.728C210.89 22.504 210.85 22.288 210.866 22.08C210.898 21.856 210.978 21.664 211.106 21.504C211.25 21.344 211.426 21.24 211.634 21.192C211.858 21.144 212.098 21.184 212.354 21.312C212.994 21.616 213.594 21.832 214.154 21.96C214.714 22.072 215.266 22.128 215.81 22.128C216.578 22.128 217.146 22 217.514 21.744C217.898 21.472 218.09 21.12 218.09 20.688C218.09 20.32 217.962 20.04 217.706 19.848C217.466 19.64 217.098 19.488 216.602 19.392L214.202 18.936C213.21 18.744 212.45 18.384 211.922 17.856C211.41 17.312 211.154 16.616 211.154 15.768C211.154 15 211.362 14.336 211.778 13.776C212.21 13.216 212.802 12.784 213.554 12.48C214.306 12.176 215.17 12.024 216.146 12.024C216.85 12.024 217.506 12.104 218.114 12.264C218.738 12.408 219.338 12.64 219.914 12.96C220.154 13.088 220.314 13.256 220.394 13.464C220.49 13.672 220.514 13.888 220.466 14.112C220.418 14.32 220.322 14.512 220.178 14.688C220.034 14.848 219.85 14.952 219.626 15C219.418 15.032 219.178 14.984 218.906 14.856C218.41 14.6 217.93 14.416 217.466 14.304C217.018 14.192 216.586 14.136 216.17 14.136C215.386 14.136 214.802 14.272 214.418 14.544C214.05 14.816 213.866 15.176 213.866 15.624C213.866 15.96 213.978 16.24 214.202 16.464C214.426 16.688 214.77 16.84 215.234 16.92L217.634 17.376C218.674 17.568 219.458 17.92 219.986 18.432C220.53 18.944 220.802 19.632 220.802 20.496C220.802 21.664 220.346 22.584 219.434 23.256C218.522 23.912 217.306 24.24 215.786 24.24Z" fill="#4B5563"/>
</svg>
