<svg width="112" height="33" viewBox="0 0 112 33" fill="none" xmlns="http://www.w3.org/2000/svg">
<path d="M3.48 24C2.952 24 2.544 23.864 2.256 23.592C1.984 23.304 1.848 22.896 1.848 22.368V8.712C1.848 8.184 1.984 7.784 2.256 7.512C2.544 7.224 2.952 7.08 3.48 7.08H9.24C10.424 7.08 11.432 7.256 12.264 7.608C13.096 7.96 13.728 8.464 14.16 9.12C14.608 9.776 14.832 10.56 14.832 11.472C14.832 12.496 14.536 13.36 13.944 14.064C13.352 14.768 12.544 15.24 11.52 15.48V15.12C12.704 15.296 13.624 15.744 14.28 16.464C14.936 17.184 15.264 18.12 15.264 19.272C15.264 20.776 14.752 21.944 13.728 22.776C12.72 23.592 11.312 24 9.504 24H3.48ZM4.8 21.672H9.12C10.208 21.672 11.008 21.464 11.52 21.048C12.032 20.616 12.288 19.976 12.288 19.128C12.288 18.264 12.032 17.624 11.52 17.208C11.008 16.792 10.208 16.584 9.12 16.584H4.8V21.672ZM4.8 14.256H8.712C9.768 14.256 10.552 14.056 11.064 13.656C11.592 13.24 11.856 12.632 11.856 11.832C11.856 11.032 11.592 10.432 11.064 10.032C10.552 9.616 9.768 9.408 8.712 9.408H4.8V14.256ZM21.0594 28.512C20.7074 28.512 20.4194 28.416 20.1954 28.224C19.9714 28.048 19.8354 27.808 19.7874 27.504C19.7554 27.2 19.8114 26.88 19.9554 26.544L21.5874 22.92V24.168L17.2194 14.064C17.0754 13.712 17.0274 13.384 17.0754 13.08C17.1234 12.776 17.2674 12.536 17.5074 12.36C17.7634 12.168 18.1074 12.072 18.5394 12.072C18.9074 12.072 19.2034 12.16 19.4274 12.336C19.6514 12.496 19.8514 12.808 20.0274 13.272L23.2674 21.36H22.5474L25.8594 13.248C26.0354 12.8 26.2434 12.496 26.4834 12.336C26.7234 12.16 27.0434 12.072 27.4434 12.072C27.7954 12.072 28.0754 12.168 28.2834 12.36C28.4914 12.536 28.6194 12.776 28.6674 13.08C28.7154 13.368 28.6594 13.688 28.4994 14.04L22.6674 27.36C22.4594 27.808 22.2354 28.112 21.9954 28.272C21.7554 28.432 21.4434 28.512 21.0594 28.512ZM34.3459 24.24C33.4979 24.24 32.7379 24.08 32.0659 23.76C31.4099 23.424 30.8899 22.976 30.5059 22.416C30.1379 21.856 29.9539 21.224 29.9539 20.52C29.9539 19.656 30.1779 18.976 30.6259 18.48C31.0739 17.968 31.8019 17.6 32.8099 17.376C33.8179 17.152 35.1699 17.04 36.8659 17.04H38.0659V18.768H36.8899C35.8979 18.768 35.1059 18.816 34.5139 18.912C33.9219 19.008 33.4979 19.176 33.2419 19.416C33.0019 19.64 32.8819 19.96 32.8819 20.376C32.8819 20.904 33.0659 21.336 33.4339 21.672C33.8019 22.008 34.3139 22.176 34.9699 22.176C35.4979 22.176 35.9619 22.056 36.3619 21.816C36.7779 21.56 37.1059 21.216 37.3459 20.784C37.5859 20.352 37.7059 19.856 37.7059 19.296V16.536C37.7059 15.736 37.5299 15.16 37.1779 14.808C36.8259 14.456 36.2339 14.28 35.4019 14.28C34.9379 14.28 34.4339 14.336 33.8899 14.448C33.3619 14.56 32.8019 14.752 32.2099 15.024C31.9059 15.168 31.6339 15.208 31.3939 15.144C31.1699 15.08 30.9939 14.952 30.8659 14.76C30.7379 14.552 30.6739 14.328 30.6739 14.088C30.6739 13.848 30.7379 13.616 30.8659 13.392C30.9939 13.152 31.2099 12.976 31.5139 12.864C32.2499 12.56 32.9539 12.344 33.6259 12.216C34.3139 12.088 34.9379 12.024 35.4979 12.024C36.6499 12.024 37.5939 12.2 38.3299 12.552C39.0819 12.904 39.6419 13.44 40.0099 14.16C40.3779 14.864 40.5619 15.776 40.5619 16.896V22.656C40.5619 23.152 40.4419 23.536 40.2019 23.808C39.9619 24.064 39.6179 24.192 39.1699 24.192C38.7219 24.192 38.3699 24.064 38.1139 23.808C37.8739 23.536 37.7539 23.152 37.7539 22.656V21.504H37.9459C37.8339 22.064 37.6099 22.552 37.2739 22.968C36.9539 23.368 36.5459 23.68 36.0499 23.904C35.5539 24.128 34.9859 24.24 34.3459 24.24ZM45.0949 24.192C44.6149 24.192 44.2469 24.064 43.9909 23.808C43.7349 23.536 43.6069 23.152 43.6069 22.656V8.4C43.6069 7.904 43.7349 7.528 43.9909 7.272C44.2469 7.016 44.6149 6.888 45.0949 6.888C45.5749 6.888 45.9429 7.016 46.1989 7.272C46.4709 7.528 46.6069 7.904 46.6069 8.4V14.616H46.2709C46.6229 13.768 47.1669 13.128 47.9029 12.696C48.6549 12.248 49.5029 12.024 50.4469 12.024C51.3909 12.024 52.1669 12.2 52.7749 12.552C53.3829 12.904 53.8389 13.44 54.1429 14.16C54.4469 14.864 54.5989 15.76 54.5989 16.848V22.656C54.5989 23.152 54.4709 23.536 54.2149 23.808C53.9589 24.064 53.5909 24.192 53.1109 24.192C52.6309 24.192 52.2549 24.064 51.9829 23.808C51.7269 23.536 51.5989 23.152 51.5989 22.656V16.992C51.5989 16.08 51.4229 15.416 51.0709 15C50.7349 14.584 50.2069 14.376 49.4869 14.376C48.6069 14.376 47.9029 14.656 47.3749 15.216C46.8629 15.76 46.6069 16.488 46.6069 17.4V22.656C46.6069 23.68 46.1029 24.192 45.0949 24.192ZM63.4299 24.24C62.1019 24.24 60.9579 23.992 59.9979 23.496C59.0379 23 58.2939 22.296 57.7659 21.384C57.2539 20.472 56.9979 19.392 56.9979 18.144C56.9979 16.928 57.2459 15.864 57.7419 14.952C58.2539 14.04 58.9499 13.328 59.8299 12.816C60.7259 12.288 61.7419 12.024 62.8779 12.024C63.7099 12.024 64.4539 12.16 65.1099 12.432C65.7819 12.704 66.3499 13.096 66.8139 13.608C67.2939 14.12 67.6539 14.744 67.8939 15.48C68.1499 16.2 68.2779 17.016 68.2779 17.928C68.2779 18.216 68.1739 18.44 67.9659 18.6C67.7739 18.744 67.4939 18.816 67.1259 18.816H59.4219V17.088H66.1659L65.7819 17.448C65.7819 16.712 65.6699 16.096 65.4459 15.6C65.2379 15.104 64.9259 14.728 64.5099 14.472C64.1099 14.2 63.6059 14.064 62.9979 14.064C62.3259 14.064 61.7499 14.224 61.2699 14.544C60.8059 14.848 60.4459 15.288 60.1899 15.864C59.9499 16.424 59.8299 17.096 59.8299 17.88V18.048C59.8299 19.36 60.1339 20.344 60.7419 21C61.3659 21.64 62.2779 21.96 63.4779 21.96C63.8939 21.96 64.3579 21.912 64.8699 21.816C65.3979 21.704 65.8939 21.52 66.3579 21.264C66.6939 21.072 66.9899 20.992 67.2459 21.024C67.5019 21.04 67.7019 21.128 67.8459 21.288C68.0059 21.448 68.1019 21.648 68.1339 21.888C68.1659 22.112 68.1179 22.344 67.9899 22.584C67.8779 22.824 67.6779 23.032 67.3899 23.208C66.8299 23.56 66.1819 23.824 65.4459 24C64.7259 24.16 64.0539 24.24 63.4299 24.24Z" fill="#2563EB"/>
<path d="M72.0938 24.12C71.5498 24.12 71.1098 23.952 70.7738 23.616C70.4538 23.28 70.2938 22.848 70.2938 22.32C70.2938 21.808 70.4538 21.392 70.7738 21.072C71.1098 20.736 71.5498 20.568 72.0938 20.568C72.6538 20.568 73.0858 20.736 73.3898 21.072C73.7098 21.392 73.8698 21.808 73.8698 22.32C73.8698 22.848 73.7098 23.28 73.3898 23.616C73.0858 23.952 72.6538 24.12 72.0938 24.12Z" fill="#FDE047"/>
<path d="M78.0949 24.192C77.6149 24.192 77.2469 24.064 76.9909 23.808C76.7349 23.536 76.6069 23.152 76.6069 22.656V13.584C76.6069 13.088 76.7349 12.712 76.9909 12.456C77.2469 12.2 77.6069 12.072 78.0709 12.072C78.5349 12.072 78.8949 12.2 79.1509 12.456C79.4069 12.712 79.5349 13.088 79.5349 13.584V15.216L79.2709 14.616C79.6229 13.768 80.1669 13.128 80.9029 12.696C81.6549 12.248 82.5029 12.024 83.4469 12.024C84.3909 12.024 85.1669 12.2 85.7749 12.552C86.3829 12.904 86.8389 13.44 87.1429 14.16C87.4469 14.864 87.5989 15.76 87.5989 16.848V22.656C87.5989 23.152 87.4709 23.536 87.2149 23.808C86.9589 24.064 86.5909 24.192 86.1109 24.192C85.6309 24.192 85.2549 24.064 84.9829 23.808C84.7269 23.536 84.5989 23.152 84.5989 22.656V16.992C84.5989 16.08 84.4229 15.416 84.0709 15C83.7349 14.584 83.2069 14.376 82.4869 14.376C81.6069 14.376 80.9029 14.656 80.3749 15.216C79.8629 15.76 79.6069 16.488 79.6069 17.4V22.656C79.6069 23.68 79.1029 24.192 78.0949 24.192ZM96.4299 24.24C95.1019 24.24 93.9579 23.992 92.9979 23.496C92.0379 23 91.2939 22.296 90.7659 21.384C90.2539 20.472 89.9979 19.392 89.9979 18.144C89.9979 16.928 90.2459 15.864 90.7419 14.952C91.2539 14.04 91.9499 13.328 92.8299 12.816C93.7259 12.288 94.7419 12.024 95.8779 12.024C96.7099 12.024 97.4539 12.16 98.1099 12.432C98.7819 12.704 99.3499 13.096 99.8139 13.608C100.294 14.12 100.654 14.744 100.894 15.48C101.15 16.2 101.278 17.016 101.278 17.928C101.278 18.216 101.174 18.44 100.966 18.6C100.774 18.744 100.494 18.816 100.126 18.816H92.4219V17.088H99.1659L98.7819 17.448C98.7819 16.712 98.6699 16.096 98.4459 15.6C98.2379 15.104 97.9259 14.728 97.5099 14.472C97.1099 14.2 96.6059 14.064 95.9979 14.064C95.3259 14.064 94.7499 14.224 94.2699 14.544C93.8059 14.848 93.4459 15.288 93.1899 15.864C92.9499 16.424 92.8299 17.096 92.8299 17.88V18.048C92.8299 19.36 93.1339 20.344 93.7419 21C94.3659 21.64 95.2779 21.96 96.4779 21.96C96.8939 21.96 97.3579 21.912 97.8699 21.816C98.3979 21.704 98.8939 21.52 99.3579 21.264C99.6939 21.072 99.9899 20.992 100.246 21.024C100.502 21.04 100.702 21.128 100.846 21.288C101.006 21.448 101.102 21.648 101.134 21.888C101.166 22.112 101.118 22.344 100.99 22.584C100.878 22.824 100.678 23.032 100.39 23.208C99.8299 23.56 99.1819 23.824 98.4459 24C97.7259 24.16 97.0539 24.24 96.4299 24.24ZM108.983 24.24C107.943 24.24 107.071 24.064 106.367 23.712C105.679 23.36 105.167 22.848 104.831 22.176C104.495 21.488 104.327 20.64 104.327 19.632V14.52H103.079C102.695 14.52 102.399 14.424 102.191 14.232C101.983 14.024 101.879 13.744 101.879 13.392C101.879 13.024 101.983 12.744 102.191 12.552C102.399 12.36 102.695 12.264 103.079 12.264H104.327V10.08C104.327 9.584 104.455 9.208 104.711 8.952C104.983 8.696 105.359 8.568 105.839 8.568C106.319 8.568 106.687 8.696 106.943 8.952C107.199 9.208 107.327 9.584 107.327 10.08V12.264H109.871C110.255 12.264 110.551 12.36 110.759 12.552C110.967 12.744 111.071 13.024 111.071 13.392C111.071 13.744 110.967 14.024 110.759 14.232C110.551 14.424 110.255 14.52 109.871 14.52H107.327V19.464C107.327 20.232 107.495 20.808 107.831 21.192C108.167 21.576 108.711 21.768 109.463 21.768C109.735 21.768 109.975 21.744 110.183 21.696C110.391 21.648 110.575 21.616 110.735 21.6C110.927 21.584 111.087 21.648 111.215 21.792C111.343 21.92 111.407 22.192 111.407 22.608C111.407 22.928 111.351 23.216 111.239 23.472C111.143 23.712 110.959 23.88 110.687 23.976C110.479 24.04 110.207 24.096 109.871 24.144C109.535 24.208 109.239 24.24 108.983 24.24Z" fill="#DC2626"/>
</svg>
